<svg xmlns="http://www.w3.org/2000/svg" viewBox="0 0 32 32" fill="none">
  <path d="M16 3C10.5 3 6 7.5 6 13c0 3 1.3 5.7 3.4 7.5.3.3.6.7.6 1.2V24c0 1.1.9 2 2 2h8c1.1 0 2-.9 2-2v-2.3c0-.5.2-.9.6-1.2C24.7 18.7 26 16 26 13c0-5.5-4.5-10-10-10z" stroke="currentColor" stroke-width="1.5" fill="hsl(222, 47%, 11%)"/>
  <path d="M12 26v1c0 1.1.9 2 2 2h4c1.1 0 2-.9 2-2v-1" stroke="currentColor" stroke-width="1.5" stroke-linecap="round"/>
  <path d="M10 13c0-3.3 2.7-6 6-6" stroke="hsl(221, 83%, 53%)" stroke-width="1.5" stroke-linecap="round"/>
  <circle cx="13" cy="11" r="1" fill="hsl(221, 83%, 53%)"/>
  <circle cx="19" cy="11" r="1" fill="hsl(221, 83%, 53%)"/>
  <circle cx="16" cy="14" r="1" fill="hsl(221, 83%, 53%)"/>
  <path d="M13 11v3h6v-3" stroke="hsl(221, 83%, 53%)" stroke-width="0.75" opacity="0.6"/>
  <path d="M16 14v2" stroke="hsl(221, 83%, 53%)" stroke-width="0.75" opacity="0.6"/>
</svg>
